<mxfile host="app.diagrams.net" modified="2023-11-11T19:41:25.495Z" agent="5.0 (Windows NT 10.0; Win64; x64) AppleWebKit/537.36 (KHTML, like Gecko) Chrome/118.0.0.0 Safari/537.36" etag="rtCkKqIzcOOhXhA5fpqq" version="20.5.3" type="github">
  <diagram id="_8IT4urnGxNxfoVCLqVr" name="Page-1">
    <mxGraphModel dx="782" dy="507" grid="1" gridSize="10" guides="1" tooltips="1" connect="1" arrows="1" fold="1" page="1" pageScale="1" pageWidth="827" pageHeight="1169" math="0" shadow="0">
      <root>
        <mxCell id="0" />
        <mxCell id="1" parent="0" />
        <mxCell id="S22Q20NOpB-QwrDOg-NR-7" style="edgeStyle=orthogonalEdgeStyle;rounded=0;orthogonalLoop=1;jettySize=auto;html=1;exitX=1;exitY=0;exitDx=0;exitDy=0;entryX=0;entryY=0.5;entryDx=0;entryDy=0;fillColor=#e1d5e7;strokeColor=#9673a6;" edge="1" parent="1" source="S22Q20NOpB-QwrDOg-NR-2" target="S22Q20NOpB-QwrDOg-NR-6">
          <mxGeometry relative="1" as="geometry" />
        </mxCell>
        <mxCell id="S22Q20NOpB-QwrDOg-NR-8" style="edgeStyle=orthogonalEdgeStyle;rounded=0;orthogonalLoop=1;jettySize=auto;html=1;exitX=1;exitY=1;exitDx=0;exitDy=0;entryX=0;entryY=0.5;entryDx=0;entryDy=0;fillColor=#e1d5e7;strokeColor=#9673a6;" edge="1" parent="1" source="S22Q20NOpB-QwrDOg-NR-2" target="S22Q20NOpB-QwrDOg-NR-3">
          <mxGeometry relative="1" as="geometry" />
        </mxCell>
        <mxCell id="S22Q20NOpB-QwrDOg-NR-9" style="edgeStyle=orthogonalEdgeStyle;rounded=0;orthogonalLoop=1;jettySize=auto;html=1;exitX=1;exitY=0.25;exitDx=0;exitDy=0;entryX=0;entryY=0.5;entryDx=0;entryDy=0;fillColor=#e1d5e7;strokeColor=#9673a6;" edge="1" parent="1" source="S22Q20NOpB-QwrDOg-NR-2" target="S22Q20NOpB-QwrDOg-NR-5">
          <mxGeometry relative="1" as="geometry" />
        </mxCell>
        <mxCell id="S22Q20NOpB-QwrDOg-NR-10" style="edgeStyle=orthogonalEdgeStyle;rounded=0;orthogonalLoop=1;jettySize=auto;html=1;exitX=1;exitY=0.75;exitDx=0;exitDy=0;entryX=0;entryY=0.5;entryDx=0;entryDy=0;fillColor=#e1d5e7;strokeColor=#9673a6;" edge="1" parent="1" source="S22Q20NOpB-QwrDOg-NR-2" target="S22Q20NOpB-QwrDOg-NR-4">
          <mxGeometry relative="1" as="geometry" />
        </mxCell>
        <mxCell id="S22Q20NOpB-QwrDOg-NR-2" value="&lt;font color=&quot;#4d4d4d&quot;&gt;Employee&lt;/font&gt;" style="whiteSpace=wrap;html=1;align=center;fillColor=#e1d5e7;strokeColor=#9673a6;" vertex="1" parent="1">
          <mxGeometry x="90" y="240" width="100" height="40" as="geometry" />
        </mxCell>
        <mxCell id="S22Q20NOpB-QwrDOg-NR-13" style="edgeStyle=orthogonalEdgeStyle;rounded=0;orthogonalLoop=1;jettySize=auto;html=1;exitX=1;exitY=0;exitDx=0;exitDy=0;entryX=0;entryY=0.5;entryDx=0;entryDy=0;fillColor=#e1d5e7;strokeColor=#9673a6;" edge="1" parent="1" source="S22Q20NOpB-QwrDOg-NR-3" target="S22Q20NOpB-QwrDOg-NR-11">
          <mxGeometry relative="1" as="geometry" />
        </mxCell>
        <mxCell id="S22Q20NOpB-QwrDOg-NR-14" style="edgeStyle=orthogonalEdgeStyle;rounded=0;orthogonalLoop=1;jettySize=auto;html=1;exitX=1;exitY=1;exitDx=0;exitDy=0;entryX=0;entryY=0.5;entryDx=0;entryDy=0;fillColor=#e1d5e7;strokeColor=#9673a6;" edge="1" parent="1" source="S22Q20NOpB-QwrDOg-NR-3" target="S22Q20NOpB-QwrDOg-NR-12">
          <mxGeometry relative="1" as="geometry" />
        </mxCell>
        <mxCell id="S22Q20NOpB-QwrDOg-NR-3" value="&lt;font color=&quot;#4d4d4d&quot;&gt;Department&lt;/font&gt;" style="ellipse;whiteSpace=wrap;html=1;align=center;fillColor=#e1d5e7;strokeColor=#9673a6;" vertex="1" parent="1">
          <mxGeometry x="250" y="360" width="100" height="40" as="geometry" />
        </mxCell>
        <mxCell id="S22Q20NOpB-QwrDOg-NR-4" value="&lt;font color=&quot;#4d4d4d&quot;&gt;Salary&lt;/font&gt;" style="ellipse;whiteSpace=wrap;html=1;align=center;fillColor=#e1d5e7;strokeColor=#9673a6;" vertex="1" parent="1">
          <mxGeometry x="250" y="280" width="100" height="40" as="geometry" />
        </mxCell>
        <mxCell id="S22Q20NOpB-QwrDOg-NR-5" value="&lt;font color=&quot;#4d4d4d&quot;&gt;Name&lt;/font&gt;" style="ellipse;whiteSpace=wrap;html=1;align=center;fillColor=#e1d5e7;strokeColor=#9673a6;" vertex="1" parent="1">
          <mxGeometry x="250" y="200" width="100" height="40" as="geometry" />
        </mxCell>
        <mxCell id="S22Q20NOpB-QwrDOg-NR-6" value="&lt;font color=&quot;#4d4d4d&quot;&gt;ID&lt;/font&gt;" style="ellipse;whiteSpace=wrap;html=1;align=center;fillColor=#e1d5e7;strokeColor=#9673a6;" vertex="1" parent="1">
          <mxGeometry x="250" y="120" width="100" height="40" as="geometry" />
        </mxCell>
        <mxCell id="S22Q20NOpB-QwrDOg-NR-11" value="&lt;font color=&quot;#4d4d4d&quot;&gt;ID&lt;/font&gt;" style="ellipse;whiteSpace=wrap;html=1;align=center;fillColor=#e1d5e7;strokeColor=#9673a6;" vertex="1" parent="1">
          <mxGeometry x="408" y="320" width="100" height="40" as="geometry" />
        </mxCell>
        <mxCell id="S22Q20NOpB-QwrDOg-NR-12" value="&lt;font color=&quot;#4d4d4d&quot;&gt;Name&lt;/font&gt;" style="ellipse;whiteSpace=wrap;html=1;align=center;fillColor=#e1d5e7;strokeColor=#9673a6;" vertex="1" parent="1">
          <mxGeometry x="408" y="400" width="100" height="40" as="geometry" />
        </mxCell>
      </root>
    </mxGraphModel>
  </diagram>
</mxfile>
